<?xml version="1.0" encoding="utf-8" ?>
<svg xmlns="http://www.w3.org/2000/svg" xmlns:xlink="http://www.w3.org/1999/xlink" width="1024" height="1024">
	<path fill="#030404" transform="matrix(1 2.61013e-13 -2.61013e-13 1 0 0)" d="M671.185 444.922C674.023 442.178 677.98 440.696 681.093 438.179C690.84 448.761 703.262 478.599 707.939 492.761C709.519 497.548 709.714 504.036 712.384 508.207C710.642 508.763 708.76 508.392 706.969 508.207C704.236 507.946 701.33 508.165 698.577 508.207C695.129 485.327 681.953 464.878 671.185 444.922Z"/>
	<path fill="#030404" transform="matrix(1 2.61013e-13 -2.61013e-13 1 0 0)" d="M344.16 436.265C347.28 439.111 350.269 442.104 353.413 444.922C339.522 463.442 330.058 486.413 322.595 508.207C320.852 508.652 311.239 508.627 309.469 508.207C322.384 482.866 321.937 462.716 344.16 436.265Z"/>
	<path fill="#030404" transform="matrix(1 2.61013e-13 -2.61013e-13 1 0 0)" d="M313.446 575.413C317.935 575.762 321.617 575.294 325.956 574.182C329.317 582.601 329.906 592.328 332.551 601.042C338.69 621.265 344.611 630.638 353.413 647.996C348.943 650.414 346.011 652.61 342.804 656.595C327.661 630.926 319.912 604.223 313.446 575.413Z"/>
	<path fill="#030404" transform="matrix(1 2.61013e-13 -2.61013e-13 1 0 0)" d="M698.577 574.182C702.53 574.376 706.433 575.079 710.376 575.413C704.024 607.746 697.765 628.143 680.135 656.595C677.246 653.847 673.503 651.209 671.185 647.996C683.221 619.176 690.486 607.773 698.577 574.182Z"/>
	<path fill="#030404" transform="matrix(1 2.61013e-13 -2.61013e-13 1 0 0)" d="M477.953 353.414C479.272 356.901 481.263 362.204 481.673 365.817C462.023 367.052 415.476 380.941 399.455 394.323C395.939 391.997 393.345 387.62 389.677 384.963C413.972 367.937 448.784 357.227 477.953 353.414Z"/>
	<path fill="#030404" transform="matrix(1 2.61013e-13 -2.61013e-13 1 0 0)" d="M393.356 704.535C397.161 702.321 399.686 697.782 402.538 694.517C425.341 712.916 450.418 722.251 477.953 730.301C477.715 733.976 477.613 739.908 476.075 743.201C439.361 730.848 428.571 729.378 393.356 704.535Z"/>
	<path fill="#030404" transform="matrix(1 2.61013e-13 -2.61013e-13 1 0 0)" d="M544.729 353.414C585.922 356.938 599.872 371.885 632.089 384.963C631.797 386.639 625.492 392.158 623.831 394.323C617.796 393.147 609.914 387.258 604.124 384.498C585.371 375.56 564.029 367.997 543.289 365.817C542.288 364.01 544.354 355.763 544.729 353.414Z"/>
	<path fill="#030404" transform="matrix(1 2.61013e-13 -2.61013e-13 1 0 0)" d="M625.847 690.745C628.283 694.778 630.827 698.383 633.836 702.001C608.438 721.515 581.126 734.41 551.013 744.417C548.086 745.39 544.869 746.092 542.054 747.329C541.078 743.48 542.169 737.929 542.054 733.781C569.577 721.692 604.174 713.973 625.847 690.745Z"/>
	<path fill="#D35C11" transform="matrix(1 2.61013e-13 -2.61013e-13 1 0 0)" d="M625.847 690.745C608.467 670.479 644.105 626.504 671.185 647.996C673.503 651.209 677.246 653.847 680.135 656.595C685.969 662.885 689.435 677.519 685.881 685.92C682.136 689.04 679.221 694.706 676.91 698.983C665.811 708.047 645.487 713.167 633.836 702.001C630.827 698.383 628.283 694.778 625.847 690.745ZM638.165 653.787C627.233 659.94 625.558 674.97 628.972 685.92C632.237 686.932 635.292 689.149 638.581 690.393C656.864 697.311 680.559 680.964 671.185 661.265L674.561 658.809C672.68 657.059 670.579 655.465 668.628 653.787L666.18 653.787C655.939 649.579 648.493 651.434 638.165 653.787Z"/>
	<path fill="#F7B02E" transform="matrix(1 2.61013e-13 -2.61013e-13 1 0 0)" d="M638.165 653.787C646.274 645.09 660.568 645.276 668.628 653.787L666.18 653.787C655.939 649.579 648.493 651.434 638.165 653.787Z"/>
	<path fill="#F7B02E" transform="matrix(1 2.61013e-13 -2.61013e-13 1 0 0)" d="M674.561 658.809C697.258 694.996 641.777 720.905 628.972 685.92C632.237 686.932 635.292 689.149 638.581 690.393C656.864 697.311 680.559 680.964 671.185 661.265L674.561 658.809Z"/>
	<path fill="#FAC42C" transform="matrix(1 2.61013e-13 -2.61013e-13 1 0 0)" d="M638.165 653.787C648.493 651.434 655.939 649.579 666.18 653.787L668.628 653.787C670.579 655.465 672.68 657.059 674.561 658.809L671.185 661.265C680.559 680.964 656.864 697.311 638.581 690.393C635.292 689.149 632.237 686.932 628.972 685.92C625.558 674.97 627.233 659.94 638.165 653.787ZM636.516 660.318C632.051 664.58 629.682 670.021 633.836 675.399C639.728 680.719 645.989 680.324 651.927 675.399C651.378 673.755 650.377 672.609 649.305 671.269L649.305 665.412C647.929 663.813 646.434 662.563 644.775 661.265C642.241 660.413 639.229 661.014 636.516 660.318Z"/>
	<path fill="#F7B02E" transform="matrix(1 2.61013e-13 -2.61013e-13 1 0 0)" d="M666.18 653.787L668.628 653.787C670.579 655.465 672.68 657.059 674.561 658.809L671.185 661.265C669.372 658.837 668.161 656.152 666.18 653.787Z"/>
	<path fill="#FBE397" transform="matrix(1 2.61013e-13 -2.61013e-13 1 0 0)" d="M636.516 660.318C642.549 654.87 650.357 659.279 653.941 665.412C654.123 669.37 654.477 672.092 651.927 675.399C651.378 673.755 650.377 672.609 649.305 671.269L649.305 665.412C647.929 663.813 646.434 662.563 644.775 661.265C642.241 660.413 639.229 661.014 636.516 660.318Z"/>
	<path fill="#FCF4D6" transform="matrix(1 2.61013e-13 -2.61013e-13 1 0 0)" d="M636.516 660.318C639.229 661.014 642.241 660.413 644.775 661.265C646.434 662.563 647.929 663.813 649.305 665.412L649.305 671.269C650.377 672.609 651.378 673.755 651.927 675.399C645.989 680.324 639.728 680.719 633.836 675.399C629.682 670.021 632.051 664.58 636.516 660.318ZM644.775 661.265C637.119 663.883 642.121 673.031 647.396 673.891C648.145 673.085 648.702 672.185 649.305 671.269L649.305 665.412C647.929 663.813 646.434 662.563 644.775 661.265Z"/>
	<path fill="#B83413" transform="matrix(1 2.61013e-13 -2.61013e-13 1 0 0)" d="M477.953 730.301C483.566 697.71 534.76 697.294 542.054 733.781C542.169 737.929 541.078 743.48 542.054 747.329C540.377 756.062 530.887 769.826 520.897 770.809C518.144 770.748 505.739 770.405 504.221 771.342L503.874 772.681C485.917 768.025 481.803 760.727 476.075 743.201C477.613 739.908 477.715 733.976 477.953 730.301ZM503.874 712.309C498.129 713.118 495.605 714.197 491.61 718.563L491.61 718.563C485.545 722.15 484.063 729.76 483.349 736.232C483.159 744.762 491.06 752.253 499.274 753.526C522.658 757.148 541.394 715.49 503.874 712.309Z"/>
	<path fill="#D35C11" transform="matrix(1 2.61013e-13 -2.61013e-13 1 0 0)" d="M503.874 712.309C532.145 701.224 552.338 751.916 517.458 763.939C499.124 770.258 476.665 756.54 483.349 736.232C483.159 744.762 491.06 752.253 499.274 753.526C522.658 757.148 541.394 715.49 503.874 712.309Z"/>
	<path fill="#F66C09" transform="matrix(1 2.61013e-13 -2.61013e-13 1 0 0)" d="M503.874 712.309C541.394 715.49 522.658 757.148 499.274 753.526C491.06 752.253 483.159 744.762 483.349 736.232C484.063 729.76 485.545 722.15 491.61 718.563L491.61 718.563C495.605 714.197 498.129 713.118 503.874 712.309ZM491.61 718.563L491.61 718.563C482.312 733.26 497.122 742.051 504.754 733.781C502.998 731.169 503.341 724.652 504.754 722.08C501.862 718.03 496.127 717.832 491.61 718.563ZM504.754 733.781C506.672 729.798 506.615 726.163 504.754 722.08C503.341 724.652 502.998 731.169 504.754 733.781Z"/>
	<path fill="#B83413" transform="matrix(1 2.61013e-13 -2.61013e-13 1 0 0)" d="M512.683 319.591C515.934 321.268 519.517 324.447 520.897 319.591C533.473 327.12 546.779 335.74 544.729 353.414C544.354 355.763 542.288 364.01 543.289 365.817C524.348 398.354 484.808 391.381 481.673 365.817C481.263 362.204 479.272 356.901 477.953 353.414C477.842 333.894 493.003 318.348 512.683 319.591Z"/>
	<path fill="#F66C09" transform="matrix(1 2.61013e-13 -2.61013e-13 1 0 0)" d="M491.61 334.104C494.622 321.767 517.568 319.298 524.684 334.78C532.967 352.798 515.775 376.94 495.534 368.378C484.05 363.521 479.525 345.258 488.819 336.311L491.61 334.104Z"/>
	<path fill="#F7B02E" transform="matrix(1 2.61013e-13 -2.61013e-13 1 0 0)" d="M491.61 334.104C503.12 327.665 510.886 336.085 511.63 347.035C507.306 356.33 492.015 362.203 487.963 349.706C486.536 345.305 489.34 340.853 488.819 336.311L491.61 334.104Z"/>
	<path fill="#0D59A3" transform="matrix(1 2.61013e-13 -2.61013e-13 1 0 0)" d="M353.413 647.996C382.76 632.2 415.7 659.547 402.538 694.517C399.686 697.782 397.161 702.321 393.356 704.535C391.571 705.049 389.525 706.401 387.791 707.195C372.27 714.303 355.472 709.719 344.16 697.339C341.304 693.283 339.129 687.985 338.54 683.054C336.435 672.542 338.165 666.056 342.804 656.595C346.011 652.61 348.943 650.414 353.413 647.996Z"/>
	<path fill="#599DE1" transform="matrix(1 2.61013e-13 -2.61013e-13 1 0 0)" d="M370.543 647.996C414.24 657.792 406.327 702.05 374.416 704.535C335.381 704.842 327.014 654.473 370.543 647.996Z"/>
	<path fill="#59C9F5" transform="matrix(1 2.61013e-13 -2.61013e-13 1 0 0)" d="M354.372 658.809C369.565 641.137 405.526 667.31 383.414 687.984C366.834 703.487 337.288 690.567 349.384 666.523C350.611 663.439 352.116 661.224 354.372 658.809Z"/>
	<path fill="#88F4FE" transform="matrix(1 2.61013e-13 -2.61013e-13 1 0 0)" d="M362.423 656.595C367.842 657.985 369.513 660.023 370.543 665.412C367.953 661.925 362.529 661.315 358.479 661.265C354.9 664.237 353.238 666.853 351.716 671.269C350.586 669.741 350.017 668.307 349.384 666.523C350.611 663.439 352.116 661.224 354.372 658.809C357.046 657.81 359.636 657.174 362.423 656.595Z"/>
	<path fill="#C5F6FC" transform="matrix(1 2.61013e-13 -2.61013e-13 1 0 0)" d="M358.479 661.265C362.529 661.315 367.953 661.925 370.543 665.412C370.766 679.4 356.912 680.278 351.716 671.269C353.238 666.853 354.9 664.237 358.479 661.265Z"/>
	<path fill="#D35C11" transform="matrix(1 2.61013e-13 -2.61013e-13 1 0 0)" d="M309.469 508.207C311.239 508.627 320.852 508.652 322.595 508.207C358.209 519.583 358.329 563.944 325.956 574.182C321.617 575.294 317.935 575.762 313.446 575.413C287.104 577.961 288.127 550.897 276.808 550.138C278.268 550.104 281.146 550.434 282.123 549.413C281.733 545.812 282.946 535.785 281.989 533.794C282.906 532.358 284.016 525.973 285.871 522.746C292.458 511.289 300.011 511.66 309.469 508.207Z"/>
	<path fill="#F38F16" transform="matrix(1 2.61013e-13 -2.61013e-13 1 0 0)" d="M321.302 514.346C346.465 516.883 352.17 549.636 332.68 564.281C317.858 575.418 287.194 568.919 287.186 548.198C306.917 576.98 354.088 551.571 321.302 514.346Z"/>
	<path fill="#F7B02E" transform="matrix(1 2.61013e-13 -2.61013e-13 1 0 0)" d="M287.186 548.198C278.302 524.731 300.18 510.117 321.302 514.346C354.088 551.571 306.917 576.98 287.186 548.198Z"/>
	<path fill="#FBE397" transform="matrix(1 2.61013e-13 -2.61013e-13 1 0 0)" d="M302.991 519.744C305.139 519.646 307.317 519.732 309.469 519.744C314.115 522.917 316.015 525.451 317.694 530.841C315.917 536.236 313.485 539.529 308.462 542.274C305.061 542.996 302.364 542.838 298.983 542.274C288.771 533.708 292.739 525.382 302.991 519.744Z"/>
	<path fill="#B83413" transform="matrix(1 2.61013e-13 -2.61013e-13 1 0 0)" d="M712.384 508.207C727.657 505.233 742.009 521.827 742.545 536.137C742.165 540.151 742.316 544.178 742.545 548.198C740.004 563.71 726.583 576.811 710.376 575.413C706.433 575.079 702.53 574.376 698.577 574.182C681.996 570.957 675.469 552.342 674.561 537.533C676.82 523.841 685.595 513.281 698.577 508.207C701.33 508.165 704.236 507.946 706.969 508.207C708.76 508.392 710.642 508.763 712.384 508.207Z"/>
	<path fill="#D35C11" transform="matrix(1 2.61013e-13 -2.61013e-13 1 0 0)" d="M682.747 550.138C675.127 538.383 682.585 512.271 698.577 514.346L698.577 514.346C682.976 520.322 676.992 534.458 682.747 550.138L682.747 550.138Z"/>
	<path fill="#D35C11" transform="matrix(1 2.61013e-13 -2.61013e-13 1 0 0)" d="M698.577 508.207C701.33 508.165 704.236 507.946 706.969 508.207C722.825 508.414 735.437 525.517 735.135 540.498C734.713 561.37 711.282 573.353 693.4 564.936L694.089 565.321L693.436 564.329L693.459 564.992L692.825 564.219C701.312 568.44 714.239 569.355 721.686 562.723L721.973 561.574C720.306 559.216 716.671 558.947 714.024 558.403C701.348 564.547 687.931 565.604 682.747 550.138L682.747 550.138C694.31 572.596 725.144 559.457 723.999 536.503C723.296 522.389 712.406 513.179 698.577 514.346L698.577 514.346L700.36 513.693C700.673 512.928 701.069 512.346 701.539 511.657L701.576 510.598C697.862 506.688 688.9 514.319 686.209 516.929C678.881 524.037 678.587 533.426 674.561 537.533C676.82 523.841 685.595 513.281 698.577 508.207Z"/>
	<path fill="#F66C09" transform="matrix(1 2.61013e-13 -2.61013e-13 1 0 0)" d="M698.577 514.346C712.406 513.179 723.296 522.389 723.999 536.503C725.144 559.457 694.31 572.596 682.747 550.138C676.992 534.458 682.976 520.322 698.577 514.346Z"/>
	<path fill="#F7B02E" transform="matrix(1 2.61013e-13 -2.61013e-13 1 0 0)" d="M688.823 524.791C695.62 520.803 702.058 521.789 706.969 528.052C712.97 539.614 703.395 546.801 692.834 546.508C701.87 542.565 709.914 536.738 700.617 528.052C697.354 524.679 693.48 525.698 689.296 524.887L688.823 524.791Z"/>
	<path fill="#FBE397" transform="matrix(1 2.61013e-13 -2.61013e-13 1 0 0)" d="M688.823 524.791L689.296 524.887C693.48 525.698 697.354 524.679 700.617 528.052C709.914 536.738 701.87 542.565 692.834 546.508C689.251 544.707 687.777 542.964 685.881 539.494C685.282 533.822 685.182 529.48 688.823 524.791Z"/>
	<path fill="#D35C11" transform="matrix(1 2.61013e-13 -2.61013e-13 1 0 0)" d="M351.716 384.963C360.958 374.829 379.392 379.6 389.677 384.963C393.345 387.62 395.939 391.997 399.455 394.323C400.135 397.375 401.79 400.1 402.867 403.015C414.102 433.43 383.939 458.711 353.413 444.922C350.269 442.104 347.28 439.111 344.16 436.265C332.64 427.107 335.079 408.133 340.885 396.739C343.994 393.95 349.056 388.143 351.716 384.963Z"/>
	<path fill="#F38F16" transform="matrix(1 2.61013e-13 -2.61013e-13 1 0 0)" d="M372.878 384.963C408.364 382.076 405.982 440.927 370.978 442.022C350.155 442.674 334.65 422.638 342.804 403.353C343.623 408.222 342.727 413.24 344.698 417.901C353.286 438.207 380.642 437.497 388.176 416.226C393.246 401.91 387.228 389.494 372.878 384.963Z"/>
	<path fill="#FAC42C" transform="matrix(1 2.61013e-13 -2.61013e-13 1 0 0)" d="M342.804 403.353C347.542 390.863 359.157 381.529 372.878 384.963C387.228 389.494 393.246 401.91 388.176 416.226C380.642 437.497 353.286 438.207 344.698 417.901C342.727 413.24 343.623 408.222 342.804 403.353Z"/>
	<path fill="#FBE397" transform="matrix(1 2.61013e-13 -2.61013e-13 1 0 0)" d="M356.94 394.323C373.283 392.998 378.583 410.988 363.717 417.295C348.353 420.725 343.938 401.523 356.94 394.323Z"/>
	<path fill="#FCF4D6" transform="matrix(1 2.61013e-13 -2.61013e-13 1 0 0)" d="M356.94 400.034C365.784 399.475 369.734 407.77 362.423 412.903C352.096 416.394 350.049 405.47 356.94 400.034Z"/>
	<path fill="#D35C11" transform="matrix(1 2.61013e-13 -2.61013e-13 1 0 0)" d="M632.089 384.963C646.248 379.778 657.719 371.062 674.561 383.374C674.666 385.08 684.171 396.82 685.881 400.034C695.56 412.131 688.228 427.039 681.093 438.179C677.98 440.696 674.023 442.178 671.185 444.922C636.725 460.538 611.667 429.056 623.831 394.323C625.492 392.158 631.797 386.639 632.089 384.963Z"/>
	<path fill="#F7B02E" transform="matrix(1 2.61013e-13 -2.61013e-13 1 0 0)" d="M649.305 383.374C686.437 379.777 693.374 432.444 657.679 440.384C618.864 442.893 614.607 389.185 649.305 383.374Z"/>
	<path fill="#FBE397" transform="matrix(1 2.61013e-13 -2.61013e-13 1 0 0)" d="M642.808 390.127C658.193 389.926 659.22 411.405 644.775 414.502C628.308 414.842 628.392 393.826 642.808 390.127Z"/>
	<path fill="#030404" transform="matrix(1 2.61013e-13 -2.61013e-13 1 0 0)" d="M503.874 772.681L504.221 771.342C505.739 770.405 518.144 770.748 520.897 770.809C512.441 774.83 524.636 774.791 528.001 775.538C528.015 780.234 528.15 784.963 528.001 789.655C524.816 789.925 521.868 789.625 518.717 789.655C527.576 793.581 551.154 802.32 557.745 807.894C561.646 811.194 573.461 857.467 574.555 864.242C576.597 876.886 555.754 886.284 546.375 893.138C536.254 900.535 523.379 914.004 511.63 917.73C499.564 913.436 489.238 903.143 478.993 895.696C467.948 887.668 445.88 878.102 447.934 863.541C449.079 855.423 457.768 821.212 463.62 814.855C466.712 811.497 489.251 794.181 493.378 792.182C495.63 791.09 500.638 791.443 501.839 789.608L501.397 788.866C497.823 788.045 496.046 788.12 493.992 784.67C489.166 776.564 501.587 776.615 503.874 772.681Z"/>
	<path fill="#0D7622" transform="matrix(1 2.61013e-13 -2.61013e-13 1 0 0)" d="M466.047 821.595C469.274 814.03 488.865 799.473 495.287 796.784C509.11 790.997 528.673 799.163 541.327 804.301C554.762 809.756 562.247 811.09 559.623 829.774C562.076 838.411 564.604 849.552 567.742 857.707C569.213 861.392 569.757 864.937 570.073 868.856C562.498 879.946 533.119 898.457 520.897 899.111C516.68 900.874 512.41 901.45 508.34 899.111C506.919 899.258 505.312 899.118 503.874 899.111C491.659 899.238 484.511 891.899 474.632 885.709C451.471 871.198 447.441 874.999 457.586 849.091C459.968 839.927 462.389 830.329 466.047 821.595Z"/>
	<path fill="#19BA59" transform="matrix(1 2.61013e-13 -2.61013e-13 1 0 0)" d="M526.702 805.8C531.499 807.675 538.147 812.631 540.138 817.482C535.555 816.143 526.312 811.419 526.702 805.8Z"/>
	<path fill="#19BA59" transform="matrix(1 2.61013e-13 -2.61013e-13 1 0 0)" d="M511.63 801.151C519.504 799.946 519.999 809.183 512.683 810.121C503.587 808.303 500.824 802.33 511.63 801.151Z"/>
	<path fill="#7CF9CC" transform="matrix(1 2.61013e-13 -2.61013e-13 1 0 0)" d="M481.673 845.438C483.062 835.947 485.33 825.957 494.835 821.595C497.67 825.277 497.06 830.093 499.678 833.718C491.746 834.226 482.007 839.775 484.435 849.091C483.397 847.961 482.56 846.687 481.673 845.438Z"/>
	<path fill="#19BA59" transform="matrix(1 2.61013e-13 -2.61013e-13 1 0 0)" d="M469.599 863.142C480.387 864.5 481.287 875.593 471.279 878.547C460.122 878.374 460.955 866.808 469.599 863.142Z"/>
	<path fill="#C1FAE3" transform="matrix(1 2.61013e-13 -2.61013e-13 1 0 0)" d="M484.435 849.091C482.007 839.775 491.746 834.226 499.678 833.718C501.649 834.893 503.175 836.396 504.754 838.035C503.26 840.444 503.056 846.581 504.754 849.091C503.2 850.774 501.765 851.775 499.678 852.707C493.372 854.825 489.392 853.814 484.435 849.091Z"/>
	<path fill="#53FBB0" transform="matrix(1 2.61013e-13 -2.61013e-13 1 0 0)" d="M483.349 860.905C482.767 855.944 481.235 850.394 481.673 845.438C482.56 846.687 483.397 847.961 484.435 849.091C489.392 853.814 493.372 854.825 499.678 852.707C504.615 855.674 509.315 864.234 503.874 868.856C504.04 869.974 504.052 870.285 504.754 871.216C499.64 874.373 497.392 878.382 495.979 884.039C495.219 880.34 496.768 878.021 497.232 874.514L495.979 873.39C491.581 869.482 486.854 865.66 483.349 860.905Z"/>
	<defs>
		<linearGradient id="gradient_0" gradientUnits="userSpaceOnUse" x1="456.39545" y1="840.45618" x2="479.22891" y2="835.07117">
			<stop offset="0" stop-color="#0AB646"/>
			<stop offset="1" stop-color="#1BDD6F"/>
		</linearGradient>
	</defs>
	<path fill="url(#gradient_0)" transform="matrix(1 2.61013e-13 -2.61013e-13 1 0 0)" d="M466.047 821.595C494.255 815.926 463.634 860.308 459.718 855.423C458.37 853.742 458.329 851.086 457.586 849.091C459.968 839.927 462.389 830.329 466.047 821.595Z"/>
	<path fill="#33F18D" transform="matrix(1 2.61013e-13 -2.61013e-13 1 0 0)" d="M543.289 829.774C546.915 826.661 550.229 824.978 554.683 823.318C556.605 825.295 558.081 827.504 559.623 829.774C562.076 838.411 564.604 849.552 567.742 857.707C565.711 857.982 563.729 858.733 561.779 859.35C552.32 850.808 548.055 841.386 543.289 829.774Z"/>
	<path fill="#33F18D" transform="matrix(1 2.61013e-13 -2.61013e-13 1 0 0)" d="M494.835 821.595C511.775 813.797 526.574 818.502 540.138 829.774C541.72 842.247 541.106 851.47 542.054 863.142C537.239 868.488 532.852 872.573 526.702 876.313C530.387 885.687 529.102 893.139 520.897 899.111C516.68 900.874 512.41 901.45 508.34 899.111C506.919 899.258 505.312 899.118 503.874 899.111C497.943 894.824 496.092 891.711 495.979 884.039C497.392 878.382 499.64 874.373 504.754 871.216C504.052 870.285 504.04 869.974 503.874 868.856C509.315 864.234 504.615 855.674 499.678 852.707C501.765 851.775 503.2 850.774 504.754 849.091C503.056 846.581 503.26 840.444 504.754 838.035C503.175 836.396 501.649 834.893 499.678 833.718C497.06 830.093 497.67 825.277 494.835 821.595Z"/>
	<path fill="#C5F6FC" transform="matrix(1 2.61013e-13 -2.61013e-13 1 0 0)" d="M504.754 838.035C506.731 841.904 506.585 845.323 504.754 849.091C503.056 846.581 503.26 840.444 504.754 838.035Z"/>
	<path fill="#53FBB0" transform="matrix(1 2.61013e-13 -2.61013e-13 1 0 0)" d="M518.717 871.216C521.948 868.809 512.328 864.94 516.811 857.104C522.901 846.457 539.285 849.928 542.054 863.142C537.239 868.488 532.852 872.573 526.702 876.313C530.387 885.687 529.102 893.139 520.897 899.111C516.68 900.874 512.41 901.45 508.34 899.111C528.28 902.01 533.462 880.091 518.717 871.216Z"/>
	<path fill="#FEFEFE" transform="matrix(1 2.61013e-13 -2.61013e-13 1 0 0)" d="M504.754 871.216C509.564 869.719 513.954 869.369 518.717 871.216C533.462 880.091 528.28 902.01 508.34 899.111C506.919 899.258 505.312 899.118 503.874 899.111C497.943 894.824 496.092 891.711 495.979 884.039C497.392 878.382 499.64 874.373 504.754 871.216Z"/>
	<path fill="#030404" transform="matrix(1 2.61013e-13 -2.61013e-13 1 0 0)" d="M690.997 351.378C687.719 342.511 678.666 326.272 679.117 317.443C679.536 309.251 714.082 268.774 719.914 267C728.435 264.409 778.443 279.637 787.198 284.949C800.693 293.137 801.934 350.579 797.285 358.19C792.993 365.216 764.655 386.741 756.643 391.758L755.444 392.51C745.837 392.602 726.086 389.698 716.548 387.559C711.065 386.329 706.338 383.859 700.617 383.374C701.765 393.395 693.059 395.892 685.881 400.034C684.171 396.82 674.666 385.08 674.561 383.374C682.362 377.874 677.728 371.132 690.997 373.539C686.471 364.323 683.891 359.64 690.997 351.378ZM726.585 297.325C724.51 298.744 722.326 300.093 720.462 301.784C729.655 305.326 738.023 319.824 742.545 328.216C744.355 329.712 746.269 329.49 748.491 329.918C756.724 332.1 767.248 336.511 773.187 342.859C775.781 336.732 776.048 330.402 775.957 323.843C779.322 320.942 781.983 317.73 783.394 313.468C783.151 304.373 779.958 296.68 770.017 296.234C767.103 295.852 764.183 295.547 761.28 296.234C760.375 297.351 759.403 298.387 758.784 299.691C747.967 294.044 738.354 292.27 726.585 297.325Z"/>
	<path fill="#3D3B5D" transform="matrix(1 2.61013e-13 -2.61013e-13 1 0 0)" d="M773.187 287.079C790.502 295.308 789.773 301.352 793.098 318.589C789.608 317.709 786.417 315.346 783.394 313.468C783.151 304.373 779.958 296.68 770.017 296.234C772.673 293.347 772.741 290.814 773.187 287.079Z"/>
	<path fill="#290C72" transform="matrix(1 2.61013e-13 -2.61013e-13 1 0 0)" d="M688.823 328.216C694.454 328.622 700.166 330.377 702.151 323.843C703.252 324.712 704.004 325.334 705.434 325.585C704.535 332.051 704.439 339.332 706.969 345.492L706.969 347.035L708.119 348.193L702.151 347.035C698.252 347.528 696.179 349.777 694.067 345.492C691.733 339.899 690.176 334.113 688.823 328.216Z"/>
	<path fill="#560BC5" transform="matrix(1 2.61013e-13 -2.61013e-13 1 0 0)" d="M694.067 345.492C696.409 342.785 703.082 342.005 702.151 347.035C698.252 347.528 696.179 349.777 694.067 345.492Z"/>
	<path fill="#751BED" transform="matrix(1 2.61013e-13 -2.61013e-13 1 0 0)" d="M725.388 367.487C729.755 371.037 735.173 371.9 740.417 373.539C742.062 377.673 745.645 384.246 745.653 388.594C735.731 385.403 724.331 386.729 715.009 382.275C715.96 379.701 722.704 379.213 725.23 368.198L725.388 367.487Z"/>
	<path fill="#751BED" transform="matrix(1 2.61013e-13 -2.61013e-13 1 0 0)" d="M694.067 303.523C697.932 306.921 703.762 309.625 706.969 313.468C704.596 316.775 703.239 319.921 702.151 323.843C700.166 330.377 694.454 328.622 688.823 328.216C684.282 315.478 686.194 314.465 694.067 303.523Z"/>
	<path fill="#560BC5" transform="matrix(1 2.61013e-13 -2.61013e-13 1 0 0)" d="M710.376 280.977C714.948 284.032 718.851 290.71 725.388 295.078C722.69 296.452 720.223 298.008 717.71 299.691C715.884 303.835 709.982 309.79 706.969 313.468C703.762 309.625 697.932 306.921 694.067 303.523C695.84 300.487 698.145 297.573 700.617 295.078C703.508 290.1 706.84 285.509 710.376 280.977Z"/>
	<path fill="#290C72" transform="matrix(1 2.61013e-13 -2.61013e-13 1 0 0)" d="M700.617 295.078C705.599 297.031 712.309 300.366 717.71 299.691C715.884 303.835 709.982 309.79 706.969 313.468C703.762 309.625 697.932 306.921 694.067 303.523C695.84 300.487 698.145 297.573 700.617 295.078Z"/>
	<path fill="#290C72" transform="matrix(1 2.61013e-13 -2.61013e-13 1 0 0)" d="M725.388 361.258C735.573 364.247 743.537 364.492 753.646 361.258L754.768 361.851L754.535 361.339L755.069 361.552L755.306 362.356L754.634 363.227L755.444 363.69L751.621 367.487C753.785 371.596 759.511 380.749 762.977 383.374C755.68 387.503 754.638 388.979 745.653 388.594C745.645 384.246 742.062 377.673 740.417 373.539C735.173 371.9 729.755 371.037 725.388 367.487C725.5 365.402 725.449 363.342 725.388 361.258Z"/>
	<path fill="#751BED" transform="matrix(1 2.61013e-13 -2.61013e-13 1 0 0)" d="M773.187 349.703C777.849 353.423 782.494 357.229 786.894 361.258C779.479 369.442 770.734 375.662 762.977 383.374C759.511 380.749 753.785 371.596 751.621 367.487L755.444 363.69C761.92 359.685 767.363 354.559 773.187 349.703Z"/>
	<path fill="#290C72" transform="matrix(1 2.61013e-13 -2.61013e-13 1 0 0)" d="M783.394 313.468C786.417 315.346 789.608 317.709 793.098 318.589C794.657 325.217 794.153 333.252 794.053 340.082L794.053 347.035C793 351.91 791.631 358.592 786.894 361.258C782.494 357.229 777.849 353.423 773.187 349.703C767.363 354.559 761.92 359.685 755.444 363.69L754.634 363.227L755.306 362.356L755.069 361.552L754.535 361.339L754.768 361.851L753.646 361.258C762.112 356.589 767.476 350.409 773.187 342.859C775.781 336.732 776.048 330.402 775.957 323.843C779.322 320.942 781.983 317.73 783.394 313.468Z"/>
	<path fill="#560BC5" transform="matrix(1 2.61013e-13 -2.61013e-13 1 0 0)" d="M779.423 328.216C783.963 328.91 788.536 329.389 793.098 329.918C793.311 333.329 793.527 336.702 794.053 340.082L794.053 347.035L793.534 347.465C789.061 346.901 782.062 339.804 779.423 336.311L779.423 328.216Z"/>
	<path fill="#560BC5" transform="matrix(1 2.61013e-13 -2.61013e-13 1 0 0)" d="M710.376 280.977C715.504 274.399 721.703 271.561 730.192 273.644C744.891 274.158 760.018 280.934 773.187 287.079C772.741 290.814 772.673 293.347 770.017 296.234C767.103 295.852 764.183 295.547 761.28 296.234C760.375 297.351 759.403 298.387 758.784 299.691C747.967 294.044 738.354 292.27 726.585 297.325C726.27 296.544 725.8 295.812 725.388 295.078C718.851 290.71 714.948 284.032 710.376 280.977Z"/>
	<path fill="#290C72" transform="matrix(1 2.61013e-13 -2.61013e-13 1 0 0)" d="M710.376 280.977C715.504 274.399 721.703 271.561 730.192 273.644L728.723 274.006C726.443 277.844 729.898 287.453 730.192 291.865C746.093 291.662 747.617 294.053 761.28 296.234C760.375 297.351 759.403 298.387 758.784 299.691C747.967 294.044 738.354 292.27 726.585 297.325C726.27 296.544 725.8 295.812 725.388 295.078C718.851 290.71 714.948 284.032 710.376 280.977Z"/>
	<path fill="#AD63F7" transform="matrix(1 2.61013e-13 -2.61013e-13 1 0 0)" d="M725.388 295.078C725.8 295.812 726.27 296.544 726.585 297.325C724.51 298.744 722.326 300.093 720.462 301.784C729.655 305.326 738.023 319.824 742.545 328.216C738.554 334.681 713.129 346.733 706.969 347.035L706.969 345.492C704.439 339.332 704.535 332.051 705.434 325.585C704.004 325.334 703.252 324.712 702.151 323.843C703.239 319.921 704.596 316.775 706.969 313.468C709.982 309.79 715.884 303.835 717.71 299.691C720.223 298.008 722.69 296.452 725.388 295.078Z"/>
	<path fill="#A242F7" transform="matrix(1 2.61013e-13 -2.61013e-13 1 0 0)" d="M725.388 295.078C725.8 295.812 726.27 296.544 726.585 297.325C724.51 298.744 722.326 300.093 720.462 301.784L717.71 303.523C713.922 317.511 711.262 331.763 708.142 345.909L707.312 345.452L706.969 345.492C704.439 339.332 704.535 332.051 705.434 325.585C704.004 325.334 703.252 324.712 702.151 323.843C703.239 319.921 704.596 316.775 706.969 313.468C709.982 309.79 715.884 303.835 717.71 299.691C720.223 298.008 722.69 296.452 725.388 295.078Z"/>
	<path fill="#100A33" transform="matrix(1 2.61013e-13 -2.61013e-13 1 0 0)" d="M725.388 295.078C725.8 295.812 726.27 296.544 726.585 297.325C724.51 298.744 722.326 300.093 720.462 301.784L717.71 303.523C710.754 309.442 705.992 316.333 705.434 325.585C704.004 325.334 703.252 324.712 702.151 323.843C703.239 319.921 704.596 316.775 706.969 313.468C709.982 309.79 715.884 303.835 717.71 299.691C720.223 298.008 722.69 296.452 725.388 295.078Z"/>
	<path fill="#AD63F7" transform="matrix(1 2.61013e-13 -2.61013e-13 1 0 0)" d="M742.545 328.216C744.355 329.712 746.269 329.49 748.491 329.918C756.724 332.1 767.248 336.511 773.187 342.859C767.476 350.409 762.112 356.589 753.646 361.258C743.537 364.492 735.573 364.247 725.388 361.258C722.644 359.192 720.196 356.88 717.71 354.515C714.694 352.009 711.521 350.125 708.119 348.193L706.969 347.035C713.129 346.733 738.554 334.681 742.545 328.216Z"/>
	<path fill="#A242F7" transform="matrix(1 2.61013e-13 -2.61013e-13 1 0 0)" d="M742.545 328.216C744.355 329.712 746.269 329.49 748.491 329.918L745.745 330.502C747.621 336.162 752.208 343.849 750.426 349.86C748.984 354.726 738.368 339.591 736.768 336.311C732.728 338.693 719.869 350.659 717.71 354.515C714.694 352.009 711.521 350.125 708.119 348.193L706.969 347.035C713.129 346.733 738.554 334.681 742.545 328.216Z"/>
	<path fill="#751BED" transform="matrix(1 2.61013e-13 -2.61013e-13 1 0 0)" d="M726.585 297.325C738.354 292.27 747.967 294.044 758.784 299.691C759.403 298.387 760.375 297.351 761.28 296.234C764.183 295.547 767.103 295.852 770.017 296.234C779.958 296.68 783.151 304.373 783.394 313.468C781.983 317.73 779.322 320.942 775.957 323.843C776.048 330.402 775.781 336.732 773.187 342.859C767.248 336.511 756.724 332.1 748.491 329.918C746.269 329.49 744.355 329.712 742.545 328.216C738.023 319.824 729.655 305.326 720.462 301.784C722.326 300.093 724.51 298.744 726.585 297.325ZM761.28 296.234C760.375 297.351 759.403 298.387 758.784 299.691C745.429 312.771 757.618 332.016 775.957 323.843C779.322 320.942 781.983 317.73 783.394 313.468C783.151 304.373 779.958 296.68 770.017 296.234C767.103 295.852 764.183 295.547 761.28 296.234Z"/>
	<path fill="#030404" transform="matrix(1 2.61013e-13 -2.61013e-13 1 0 0)" d="M321.302 383.374C313.261 387.522 275.648 393.827 268.112 390.801C263.434 388.922 233.473 365.476 229.524 361.508C219.578 351.517 224.563 333.647 225.594 321.141C228.592 284.752 225.826 287.449 262.119 276.419C295.371 266.313 294.924 259.196 320.631 284.187C327.032 290.41 340.911 300.965 343.665 309.698C346.549 318.841 338.205 342.107 333.756 350.671L333.385 351.378C338.071 356.972 340.866 362.882 335.843 369.303C344.381 373.466 346.501 377.409 351.716 384.963C349.056 388.143 343.994 393.95 340.885 396.739C337.816 395.262 335.976 395.39 332.79 395.741C322.91 396.827 326.866 387.861 321.302 383.374Z"/>
	<path fill="#599DE1" transform="matrix(1 2.61013e-13 -2.61013e-13 1 0 0)" d="M278.965 386.139L278.636 385.656C279.876 383.085 294.327 370.967 297.388 369.303C298.053 374.651 300.379 378.769 302.991 383.374C295.017 384.45 286.994 385.571 278.965 386.139Z"/>
	<path fill="#599DE1" transform="matrix(1 2.61013e-13 -2.61013e-13 1 0 0)" d="M264.892 280.977C272.313 278.496 279.796 276.217 287.186 273.644C287.481 276.335 289.215 293.514 284.361 291.865C277.498 288.922 268.605 288.814 264.892 280.977Z"/>
	<defs>
		<linearGradient id="gradient_1" gradientUnits="userSpaceOnUse" x1="245.11842" y1="285.19534" x2="244.41779" y2="309.07095">
			<stop offset="0" stop-color="#01337C"/>
			<stop offset="1" stop-color="#0D4F97"/>
		</linearGradient>
	</defs>
	<path fill="url(#gradient_1)" transform="matrix(1 2.61013e-13 -2.61013e-13 1 0 0)" d="M231.557 308.786C232.332 286.582 237.384 290.074 257.229 283.806C256.339 288.233 256.496 291.826 257.229 296.234C249.474 297.963 244.875 303.109 244.375 310.902C237.107 307.378 233.063 302.476 231.557 308.786Z"/>
	<path fill="#599DE1" transform="matrix(1 2.61013e-13 -2.61013e-13 1 0 0)" d="M257.229 357.382C260.271 360.804 265.246 363.627 269.236 365.817C268.028 370.281 266.843 379.805 264.892 383.374C255.782 375.724 246.308 368.342 236.751 361.258C241.317 359.092 251.837 358.304 257.229 357.382Z"/>
	<path fill="#1382CF" transform="matrix(1 2.61013e-13 -2.61013e-13 1 0 0)" d="M231.557 308.786C233.063 302.476 237.107 307.378 244.375 310.902C243.851 313.915 243.097 316.664 244.375 319.591L247.214 322.522L247.214 329.918L244.375 329.918L244.375 334.104L244.284 335.115C239.387 337.517 233.433 337.628 228.301 340.082C229.743 329.734 230.586 319.191 231.557 308.786Z"/>
	<path fill="#100A33" transform="matrix(1 2.61013e-13 -2.61013e-13 1 0 0)" d="M244.375 319.591L247.214 322.522L247.214 329.918L244.375 329.918C243.967 326.571 243.752 322.912 244.375 319.591Z"/>
	<path fill="#0C3D8C" transform="matrix(1 2.61013e-13 -2.61013e-13 1 0 0)" d="M298.983 363.69C298.534 365.546 298.225 367.589 297.388 369.303C294.327 370.967 279.876 383.085 278.636 385.656L278.965 386.139C274.244 387.49 268.58 386.666 264.892 383.374C266.843 379.805 268.028 370.281 269.236 365.817C270.204 365.823 271.265 365.922 272.22 365.817C279.81 367.396 291.919 367.475 298.983 363.69Z"/>
	<path fill="#0C3D8C" transform="matrix(1 2.61013e-13 -2.61013e-13 1 0 0)" d="M244.375 334.104C249.911 346.356 251.225 346.965 257.229 357.382C251.837 358.304 241.317 359.092 236.751 361.258C229.922 358.152 227.075 346.607 228.301 340.082C233.433 337.628 239.387 337.517 244.284 335.115L244.375 334.104Z"/>
	<path fill="#0C3D8C" transform="matrix(1 2.61013e-13 -2.61013e-13 1 0 0)" d="M287.186 273.644C298.928 270.906 305.139 274.329 311.745 283.806C315.182 286.295 318.325 288.835 321.302 291.865C319.443 293.668 315.87 294.152 313.446 295.078C312.1 295.006 310.817 294.973 309.469 295.078C303.088 296.744 289.033 295.469 287.186 296.234L284.361 296.234L285.469 294.923C285.205 293.614 284.7 293.305 283.792 292.355L284.361 291.865C289.215 293.514 287.481 276.335 287.186 273.644Z"/>
	<path fill="#0D59A3" transform="matrix(1 2.61013e-13 -2.61013e-13 1 0 0)" d="M311.745 283.806C315.182 286.295 318.325 288.835 321.302 291.865C319.443 293.668 315.87 294.152 313.446 295.078C309.912 293.99 308.94 286.258 311.745 283.806Z"/>
	<path fill="#0C3D8C" transform="matrix(1 2.61013e-13 -2.61013e-13 1 0 0)" d="M321.302 291.865C325.215 295.201 334.723 303.76 335.843 308.786C336.673 310.399 337.577 311.932 338.54 313.468C338.372 319.286 337.305 324.313 335.843 329.918C334.592 336.919 332.876 343.247 329.856 349.703C324.416 347.836 319.134 347.77 313.446 348.193C314.368 345.557 315.031 342.773 315.788 340.082C316.487 334.934 316.68 330.713 315.788 325.585L319.469 323.843C317.984 319.792 315.077 316.074 313.881 312C312.196 306.26 312.899 300.551 309.469 295.078C310.817 294.973 312.1 295.006 313.446 295.078C315.87 294.152 319.443 293.668 321.302 291.865Z"/>
	<path fill="#1382CF" transform="matrix(1 2.61013e-13 -2.61013e-13 1 0 0)" d="M319.469 328.216C320.704 322.753 328.535 306.762 335.843 308.786C336.673 310.399 337.577 311.932 338.54 313.468C338.372 319.286 337.305 324.313 335.843 329.918C330.481 331.614 324.936 332.792 319.469 334.104C319.562 332.127 319.554 330.193 319.469 328.216Z"/>
	<path fill="#599DE1" transform="matrix(1 2.61013e-13 -2.61013e-13 1 0 0)" d="M257.229 283.806C259.783 283.187 262.428 281.927 264.892 280.977C268.605 288.814 277.498 288.922 284.361 291.865L283.792 292.355C284.7 293.305 285.205 293.614 285.469 294.923L284.361 296.234L287.186 296.234C289.033 295.469 303.088 296.744 309.469 295.078C312.899 300.551 312.196 306.26 313.881 312C315.077 316.074 317.984 319.792 319.469 323.843L315.788 325.585C316.68 330.713 316.487 334.934 315.788 340.082C315.031 342.773 314.368 345.557 313.446 348.193C308.617 351.092 301.292 355.819 298.983 361.258C292.708 364.604 285.836 364.505 278.965 363.69C260.225 363.586 248.519 347.377 247.214 329.918L247.214 322.522L244.375 319.591C243.097 316.664 243.851 313.915 244.375 310.902C244.875 303.109 249.474 297.963 257.229 296.234C256.496 291.826 256.339 288.233 257.229 283.806Z"/>
	<path fill="#59C9F5" transform="matrix(1 2.61013e-13 -2.61013e-13 1 0 0)" d="M313.446 318.589C314.513 320.904 315.38 323.04 315.788 325.585C316.68 330.713 316.487 334.934 315.788 340.082C310.747 332.467 308.042 345.679 308.462 318.589C310.083 318.813 311.809 318.645 313.446 318.589Z"/>
	<path fill="#290C72" transform="matrix(1 2.61013e-13 -2.61013e-13 1 0 0)" d="M309.469 295.078C312.899 300.551 312.196 306.26 313.881 312C315.077 316.074 317.984 319.792 319.469 323.843L315.788 325.585C315.38 323.04 314.513 320.904 313.446 318.589C309.258 306.76 298.454 300.377 287.186 296.234C289.033 295.469 303.088 296.744 309.469 295.078Z"/>
	<path fill="#0D59A3" transform="matrix(1 2.61013e-13 -2.61013e-13 1 0 0)" d="M257.229 283.806C259.783 283.187 262.428 281.927 264.892 280.977C268.605 288.814 277.498 288.922 284.361 291.865L283.792 292.355C284.7 293.305 285.205 293.614 285.469 294.923L284.361 296.234C276.305 294.794 269.225 295.455 261.124 296.234L257.229 296.234C256.496 291.826 256.339 288.233 257.229 283.806Z"/>
	<path fill="#FEFEFE" transform="matrix(1 2.61013e-13 -2.61013e-13 1 0 0)" d="M257.229 296.234L261.124 296.234C284.475 306.818 267.74 334.747 247.214 322.522L244.375 319.591C243.097 316.664 243.851 313.915 244.375 310.902C244.875 303.109 249.474 297.963 257.229 296.234Z"/>
	<path fill="#030404" transform="matrix(1 2.61013e-13 -2.61013e-13 1 0 0)" d="M338.54 683.054C339.129 687.985 341.304 693.283 344.16 697.339C340.218 698.936 336.784 702.001 333.385 704.535C335.51 712.666 343.154 744.078 343.029 750.398C342.863 758.802 333.508 769.154 329.25 775.894C305.496 813.501 313.132 812.596 265.463 803.754C249.403 800.776 233.54 801.875 227.421 783.66C224.543 775.09 216.629 738.526 217.327 730.558C218.025 722.593 258.241 685.935 266.596 684.481C278.608 682.391 307.595 693.006 321.851 694.445L322.595 694.517C325.866 685.802 328.948 683.434 338.54 683.054Z"/>
	<path fill="#19BA59" transform="matrix(1 2.61013e-13 -2.61013e-13 1 0 0)" d="M322.595 726.425C327.102 725.182 330.017 723.164 333.385 719.957C336.114 731.322 336.964 739.615 333.385 750.865C329.743 744.952 327.673 734.735 322.595 726.425Z"/>
	<path fill="#19BA59" transform="matrix(1 2.61013e-13 -2.61013e-13 1 0 0)" d="M272.22 688.134C283.725 689.009 294.743 693.771 306.355 694.517C304.204 696.968 302.014 699.389 300.056 702.001C291.52 702.019 272.064 699.812 272.22 688.134Z"/>
	<path fill="#33F18D" transform="matrix(1 2.61013e-13 -2.61013e-13 1 0 0)" d="M309.469 791.221C314.027 779.078 320.811 762.53 333.385 757.235C333.362 766.748 320.013 786.051 313.446 793.436L309.469 791.221Z"/>
	<path fill="#0D7622" transform="matrix(1 2.61013e-13 -2.61013e-13 1 0 0)" d="M261.124 694.517C268.773 686.716 271.168 692.542 272.22 688.134C272.064 699.812 291.52 702.019 300.056 702.001C299.026 716.449 307.358 727.017 322.595 726.425C327.673 734.735 329.743 744.952 333.385 750.865C333.27 752.923 333.029 755.19 333.385 757.235C320.811 762.53 314.027 779.078 309.469 791.221C301.267 787.989 302.2 798.359 296.815 801.03C289.824 804.499 255.056 797.395 250.249 787.956C248.036 786.357 246.22 784.813 244.375 782.777C240.895 783.067 239.327 783.956 236.751 786.303C230.365 772.811 223.771 748.596 224.102 733.781C232.982 731.972 240.279 729.855 235.69 719.957C230.7 713.741 256.514 696.011 261.124 694.517Z"/>
	<path fill="#33F18D" transform="matrix(1 2.61013e-13 -2.61013e-13 1 0 0)" d="M261.124 694.517C269.782 700.296 250.287 728.19 235.69 719.957C230.7 713.741 256.514 696.011 261.124 694.517Z"/>
	<path fill="#88F4FE" transform="matrix(1 2.61013e-13 -2.61013e-13 1 0 0)" d="M247.214 759.205C252.333 758.121 255.986 758.694 261.124 759.205C269.906 763.152 271.95 769.858 271.053 779.01C266.714 787.573 259.42 790.249 250.249 787.956C248.036 786.357 246.22 784.813 244.375 782.777C239.723 774.692 239.223 765.479 247.214 759.205Z"/>
	<path fill="#FEFEFE" transform="matrix(1 2.61013e-13 -2.61013e-13 1 0 0)" d="M255.646 759.205C272.392 760.642 275.845 783.77 257.229 786.303C238.855 786.449 238.812 762.315 255.646 759.205Z"/>
	<path fill="#53FBB0" transform="matrix(1 2.61013e-13 -2.61013e-13 1 0 0)" d="M255.646 726.425C264.737 715.286 273.311 712.818 287.186 717.047C293.748 730.694 280.367 731.364 272.22 732.059C271.068 735.332 269.863 737.428 267.311 739.784C264 740.216 260.545 740.221 257.229 739.784C255.076 745.632 259.367 751.697 261.124 757.235L261.124 759.205C255.986 758.694 252.333 758.121 247.214 759.205C240.711 753.113 247.964 732.569 255.646 726.425Z"/>
	<path fill="#FEFEFE" transform="matrix(1 2.61013e-13 -2.61013e-13 1 0 0)" d="M255.646 728.362C261.755 720.689 270.845 720.24 272.22 732.059C271.068 735.332 269.863 737.428 267.311 739.784C264 740.216 260.545 740.221 257.229 739.784C253.349 736.076 253.024 733.159 255.646 728.362Z"/>
	<path fill="#33F18D" transform="matrix(1 2.61013e-13 -2.61013e-13 1 0 0)" d="M287.186 717.047C309.111 722.97 310.692 730.48 315.788 750.865C312.307 760.849 305.019 768.208 300.056 777.386C290.049 779.271 280.145 777.586 271.053 779.01C271.95 769.858 269.906 763.152 261.124 759.205L261.124 757.235C259.367 751.697 255.076 745.632 257.229 739.784C260.545 740.221 264 740.216 267.311 739.784C269.863 737.428 271.068 735.332 272.22 732.059C280.367 731.364 293.748 730.694 287.186 717.047Z"/>
	<path fill="#7CF9CC" transform="matrix(1 2.61013e-13 -2.61013e-13 1 0 0)" d="M267.311 739.784C270.718 748.386 268.887 752.386 261.124 757.235C259.367 751.697 255.076 745.632 257.229 739.784C260.545 740.221 264 740.216 267.311 739.784Z"/>
	<path fill="#030404" transform="matrix(1 2.61013e-13 -2.61013e-13 1 0 0)" d="M698.577 698.983C708.676 689.213 721.606 690.367 735.12 687.739C742.898 686.226 750.945 683.902 758.784 683.054C764.675 685.58 802.093 721.6 805.613 728.362C805.703 736.943 793.264 790.913 789.261 794.932C783.872 800.343 728.268 809.795 722.452 809.207C714.064 808.359 684.739 769.571 680.135 761.379C677.875 742.685 676.69 724.006 688.823 709.745C685.094 705.914 681.16 702.236 676.91 698.983C679.221 694.706 682.136 689.04 685.881 685.92C690.239 690.152 694.8 694.211 698.577 698.983Z"/>
	<path fill="#88F4FE" transform="matrix(1 2.61013e-13 -2.61013e-13 1 0 0)" d="M779.423 761.379L779.423 761.379C786.958 774.022 781.187 790.441 765.26 786.303C774.877 781.117 773.599 781.533 781.255 772.681C781.348 768.691 780.45 765.218 779.423 761.379Z"/>
	<path fill="#B83413" transform="matrix(1 2.61013e-13 -2.61013e-13 1 0 0)" d="M688.823 722.08C692.413 728.684 694.346 731.226 702.151 733.781C701.193 736.236 700.341 738.645 700.617 741.308C698.399 742.435 696.233 743.778 694.067 745.009C690.826 746.455 687.686 747.997 684.555 749.67C686.185 740.464 686.044 731.093 688.823 722.08Z"/>
	<path fill="#B83413" transform="matrix(1 2.61013e-13 -2.61013e-13 1 0 0)" d="M748.491 690.745L749.569 690.494L750.057 690.857C748.621 694.745 745.012 698.679 742.545 702.001C731.828 702.104 721.084 701.541 710.376 702.001C708.043 702.04 706.796 702.124 707.745 699.529C711.003 697.078 741.971 691.695 748.491 690.745Z"/>
	<path fill="#B83413" transform="matrix(1 2.61013e-13 -2.61013e-13 1 0 0)" d="M702.151 757.235L702.803 757.406C707.55 769.188 717.69 780.288 712.384 793.436C710.244 791.345 708.648 788.765 706.969 786.303C700.375 780.104 693.03 769.934 687.527 762.558C692.399 760.768 697.233 758.895 702.151 757.235Z"/>
	<path fill="#B83413" transform="matrix(1 2.61013e-13 -2.61013e-13 1 0 0)" d="M740.417 786.303C743.11 786.176 745.797 786.251 748.491 786.303C754.318 791.371 760.554 793.149 767.71 795.473C760.384 796.966 753.005 798.248 745.653 799.61C737.237 800.972 728.849 802.665 720.462 804.2C723.615 789.101 724.669 786.168 740.417 786.303Z"/>
	<path fill="#F3442C" transform="matrix(1 2.61013e-13 -2.61013e-13 1 0 0)" d="M793.098 733.781C795.233 733.33 797.728 732.505 799.66 733.908C801.911 740.666 792.931 768.427 789.451 775.538C786.259 766.791 778.663 744.454 782.852 736.14C785.712 733.496 789.423 733.933 793.098 733.781Z"/>
	<path fill="#C5F6FC" transform="matrix(1 2.61013e-13 -2.61013e-13 1 0 0)" d="M761.28 764.414C767.115 761.367 773.024 761.277 779.423 761.379C780.45 765.218 781.348 768.691 781.255 772.681C773.599 781.533 774.877 781.117 765.26 786.303C758.875 785.708 754.673 784.362 753.646 777.386C753.238 770.606 755.263 767.789 761.28 764.414Z"/>
	<path fill="#F3442C" transform="matrix(1 2.61013e-13 -2.61013e-13 1 0 0)" d="M762.977 690.745C772.691 700.568 782.409 711.227 793.098 719.957C789.827 720.565 786.599 721.18 783.394 722.08C780.899 722.736 778.429 723.539 775.957 724.279C768.956 718.962 762.249 713.245 755.444 707.68C758.385 702.201 759.707 696.067 762.977 690.745Z"/>
	<path fill="#F3442C" transform="matrix(1 2.61013e-13 -2.61013e-13 1 0 0)" d="M714.024 718.563C725.102 713.697 737.716 711.304 749.689 709.745C751.047 710.53 752.34 711.438 753.646 712.309C757.711 715.37 761.765 718.351 765.26 722.08C768.171 723.968 770.854 725.751 773.187 728.362C774.296 730.14 775.207 731.823 775.957 733.781C777.845 742.39 777.329 753.872 779.423 761.379L779.423 761.379C773.024 761.277 767.115 761.367 761.28 764.414C755.263 767.789 753.238 770.606 753.646 777.386L753.086 778.266C750.856 779.587 730.78 779 726.585 779.01C720.663 773.407 710.225 758.11 705.434 750.865C707.896 740.128 712.514 729.504 714.024 718.563Z"/>
	<path fill="#F66E4E" transform="matrix(1 2.61013e-13 -2.61013e-13 1 0 0)" d="M751.621 757.235C743.116 751.651 738.621 744.287 740.417 733.781C742.656 737.119 746.57 740.035 748.491 743.201C746.568 748.143 752.532 752.037 752.416 756.737L751.621 757.235Z"/>
	<path fill="#F69783" transform="matrix(1 2.61013e-13 -2.61013e-13 1 0 0)" d="M753.646 712.309C757.711 715.37 761.765 718.351 765.26 722.08C768.171 723.968 770.854 725.751 773.187 728.362C774.296 730.14 775.207 731.823 775.957 733.781C775.877 739.812 776.649 743.476 770.017 745.009L765.26 745.009C758.733 746.036 754.584 746.128 748.491 743.201C746.57 740.035 742.656 737.119 740.417 733.781C741.077 731.949 741.781 730.153 742.545 728.362C744.258 721.378 749.377 717.641 753.646 712.309Z"/>
	<path fill="#F66E4E" transform="matrix(1 2.61013e-13 -2.61013e-13 1 0 0)" d="M762.977 722.08L765.26 722.08C768.171 723.968 770.854 725.751 773.187 728.362C774.296 730.14 775.207 731.823 775.957 733.781C775.877 739.812 776.649 743.476 770.017 745.009L765.26 745.009C770.579 740.138 770.946 733.248 770.017 726.425C767.941 724.572 765.42 723.374 762.977 722.08Z"/>
	<path fill="#F66E4E" transform="matrix(1 2.61013e-13 -2.61013e-13 1 0 0)" d="M753.646 712.309C757.711 715.37 761.765 718.351 765.26 722.08L762.977 722.08C754.776 721.795 749.099 723.022 742.545 728.362C744.258 721.378 749.377 717.641 753.646 712.309Z"/>
	<path fill="#030404" transform="matrix(1 2.61013e-13 -2.61013e-13 1 0 0)" d="M271.053 550.138C264.978 570.943 255.316 549.93 250.541 549.546C243.614 551.486 230.261 579.569 224.267 586.535C216.285 595.813 204.951 594.288 193.801 595.34C184.152 596.249 161.53 601.503 153.784 594.57C148.675 589.998 127.452 555.729 123.033 546.689C119.063 538.568 119.462 533.971 124.024 526.204C129.246 517.314 152.605 484.072 157.958 478.954C166.608 470.686 184.16 477.24 194.445 478.91C221.368 483.281 217.937 478.047 232.345 501.727C237.832 510.744 248.135 520.64 247.274 531.934L247.214 532.65C261.557 532.102 254.589 527.86 259.485 523.806C270.344 519.463 268.431 528.146 270.813 531.232C272.25 533.093 279.585 533.467 281.989 533.794C282.946 535.785 281.733 545.812 282.123 549.413C281.146 550.434 278.268 550.104 276.808 550.138L271.053 550.138ZM178.409 502.294C162.108 505.299 162.125 510.807 151.86 516.336L151.86 517.996C151.018 518.557 150.201 519.127 149.399 519.744C135.424 524.9 129.392 539.457 142.621 550.138C143.987 550.873 145.34 551.656 146.767 552.265C154.158 562.56 161.126 563.957 169.361 571.519L169.361 571.519C175.114 574.097 180.791 575.148 187.064 575.413C188.713 575.2 190.375 574.628 191.98 574.182C198.869 570.834 208.152 564.791 212.031 557.997L211.756 557.238C214.442 553.099 216.808 549.017 218.925 544.553C219.261 542.112 219.158 539.961 218.925 537.533C216.58 522.123 208.795 511.536 194.695 504.155C189.11 502.549 184.259 501.659 178.409 502.294Z"/>
	<path fill="#751BED" transform="matrix(1 2.61013e-13 -2.61013e-13 1 0 0)" d="M224.102 552.265C228.869 554.993 233.684 556.03 239.014 557.238C235.327 563.725 231.223 569.822 226.276 575.413C224.963 573.628 224.173 555.607 224.102 552.265Z"/>
	<path fill="#751BED" transform="matrix(1 2.61013e-13 -2.61013e-13 1 0 0)" d="M224.102 494.022C230.252 501.956 235.027 510.982 236.751 520.936C233.242 522.058 229.52 523.026 226.276 524.791C223.476 515.621 223.258 503.531 224.102 494.022Z"/>
	<path fill="#751BED" transform="matrix(1 2.61013e-13 -2.61013e-13 1 0 0)" d="M178.409 480.422C190.487 482.66 203.098 484.476 214.656 488.692C212.941 494.426 198.733 496.202 194.695 500.62C189.938 499.577 185.445 498.432 180.543 498.41C180.058 492.361 179.593 486.384 178.409 480.422Z"/>
	<path fill="#290C72" transform="matrix(1 2.61013e-13 -2.61013e-13 1 0 0)" d="M159.305 487.092C161.472 479.104 171.733 478.788 178.409 480.422C179.593 486.384 180.058 492.361 180.543 498.41C185.445 498.432 189.938 499.577 194.695 500.62C194.821 501.864 194.809 502.92 194.695 504.155C189.11 502.549 184.259 501.659 178.409 502.294C162.108 505.299 162.125 510.807 151.86 516.336C151.368 511.889 166.475 504.747 168.916 501.107C167.897 496.504 162.108 490.981 159.305 487.092Z"/>
	<path fill="#290C72" transform="matrix(1 2.61013e-13 -2.61013e-13 1 0 0)" d="M211.756 557.238C214.442 553.099 216.808 549.017 218.925 544.553C221.627 545.53 223.001 549.735 224.102 552.265C224.173 555.607 224.963 573.628 226.276 575.413C224.831 578.765 220.469 582.588 217.355 584.44C207.497 575.447 202.317 576.699 191.98 574.182C198.869 570.834 208.152 564.791 212.031 557.997L211.756 557.238Z"/>
	<path fill="#290C72" transform="matrix(1 2.61013e-13 -2.61013e-13 1 0 0)" d="M214.656 488.692C217.954 489.521 222.994 490.178 224.102 494.022C223.258 503.531 223.476 515.621 226.276 524.791C222.792 528.759 218.831 531.924 218.925 537.533C216.58 522.123 208.795 511.536 194.695 504.155C194.809 502.92 194.821 501.864 194.695 500.62C198.733 496.202 212.941 494.426 214.656 488.692Z"/>
	<path fill="#751BED" transform="matrix(1 2.61013e-13 -2.61013e-13 1 0 0)" d="M163.389 574.182C165.466 572.417 166.637 571.852 169.361 571.519C175.114 574.097 180.791 575.148 187.064 575.413C188.713 575.2 190.375 574.628 191.98 574.182C202.317 576.699 207.497 575.447 217.355 584.44C207.991 592.376 181.259 593.762 171.384 590.915C168.732 589.487 163.105 589.427 159.305 587.511C160.781 585.137 165.035 576.751 163.389 574.182Z"/>
	<path fill="#290C72" transform="matrix(1 2.61013e-13 -2.61013e-13 1 0 0)" d="M163.389 574.182C165.466 572.417 166.637 571.852 169.361 571.519C175.114 574.097 180.791 575.148 187.064 575.413C184.824 575.71 182.781 575.607 180.543 575.413C177.457 580.326 174.006 585.771 171.384 590.915C168.732 589.487 163.105 589.427 159.305 587.511C160.781 585.137 165.035 576.751 163.389 574.182Z"/>
	<path fill="#751BED" transform="matrix(1 2.61013e-13 -2.61013e-13 1 0 0)" d="M159.305 487.092C162.108 490.981 167.897 496.504 168.916 501.107C166.475 504.747 151.368 511.889 151.86 516.336L151.86 517.996C151.018 518.557 150.201 519.127 149.399 519.744C135.424 524.9 129.392 539.457 142.621 550.138C143.987 550.873 145.34 551.656 146.767 552.265C154.158 562.56 161.126 563.957 169.361 571.519L169.361 571.519C166.637 571.852 165.466 572.417 163.389 574.182C165.035 576.751 160.781 585.137 159.305 587.511C151.273 581.861 133.333 551.699 134.49 543.423C134.806 541.163 132.638 539.414 132.511 537.121C132.176 531.074 155.111 492.223 159.305 487.092Z"/>
	<path fill="#100A33" transform="matrix(1 2.61013e-13 -2.61013e-13 1 0 0)" d="M142.621 550.138C143.987 550.873 145.34 551.656 146.767 552.265C154.158 562.56 161.126 563.957 169.361 571.519L169.361 571.519C166.637 571.852 165.466 572.417 163.389 574.182C155.397 566.656 147.909 559.896 142.621 550.138Z"/>
	<path fill="#A242F7" transform="matrix(1 2.61013e-13 -2.61013e-13 1 0 0)" d="M178.409 502.294C184.259 501.659 189.11 502.549 194.695 504.155C208.795 511.536 216.58 522.123 218.925 537.533C219.158 539.961 219.261 542.112 218.925 544.553C216.808 549.017 214.442 553.099 211.756 557.238L212.031 557.997C208.152 564.791 198.869 570.834 191.98 574.182C190.375 574.628 188.713 575.2 187.064 575.413C180.791 575.148 175.114 574.097 169.361 571.519L169.361 571.519C161.126 563.957 154.158 562.56 146.767 552.265C145.34 551.656 143.987 550.873 142.621 550.138C129.392 539.457 135.424 524.9 149.399 519.744C150.201 519.127 151.018 518.557 151.86 517.996L151.86 516.336C162.125 510.807 162.108 505.299 178.409 502.294ZM149.399 519.744C135.424 524.9 129.392 539.457 142.621 550.138C143.987 550.873 145.34 551.656 146.767 552.265C168.275 554.096 172.186 525.13 149.399 519.744Z"/>
	<path fill="#100A33" transform="matrix(1 2.61013e-13 -2.61013e-13 1 0 0)" d="M211.756 557.238L212.031 557.997C208.152 564.791 198.869 570.834 191.98 574.182C190.375 574.628 188.713 575.2 187.064 575.413C180.791 575.148 175.114 574.097 169.361 571.519L169.361 571.519C186.478 574.699 199.999 570.402 211.756 557.238Z"/>
	<path fill="#AD63F7" transform="matrix(1 2.61013e-13 -2.61013e-13 1 0 0)" d="M151.86 516.336C162.125 510.807 162.108 505.299 178.409 502.294L179.194 502.484C182.262 503.212 193.242 503.801 181.916 503.529C190.29 506.782 178.86 505.625 171.571 508.787C165.927 511.236 157.959 518.141 151.86 517.996L151.86 516.336Z"/>
	<path fill="#030404" transform="matrix(1 2.61013e-13 -2.61013e-13 1 0 0)" d="M773.187 532.65C776.716 521.824 795.505 487.442 801.535 484.235C809.319 480.094 857.663 468.114 867.127 478.233C875.383 487.059 907.699 530.479 903.365 542.197C901.005 548.578 869.219 595.359 864.003 597.948C855.839 602 815.352 595.385 808.084 592.679C799.664 589.544 782.447 558.486 773.187 550.138C764.239 557.46 755.532 558.267 748.491 548.198L742.545 548.198C742.316 544.178 742.165 540.151 742.545 536.137C752.999 534.239 756.969 513.922 773.187 532.65ZM850.344 478.714C851.386 481.49 850.075 496.751 842.265 498.41C845.982 499.459 845.153 500.384 842.265 502.294C831.709 503.593 817.296 503.873 812.858 514.346C810.086 522.052 806.151 529.221 805.613 537.533C803.844 540.733 805.473 548.603 799.42 552.265L797.361 552.265C799.625 553.957 803.494 565.321 805.613 568.848L797.361 574.182C799.575 579.606 804.901 584.989 810.183 587.511L848.678 592.187L849.646 592.381C855.941 593.633 860.075 593.675 865.612 589.969C871.809 580.409 877.944 570.837 883.881 561.113C892.994 554.762 895.64 528.803 885.862 519.744C880.519 510.247 874.01 501.105 868.357 491.725C866.731 487.535 855.136 474.906 850.344 478.714Z"/>
	<path fill="#1187B0" transform="matrix(1 2.61013e-13 -2.61013e-13 1 0 0)" d="M797.361 552.265C799.625 553.957 803.494 565.321 805.613 568.848L797.361 574.182C792.934 567.838 788.045 561.733 783.394 555.545C788.782 555.582 792.587 554.794 797.361 552.265Z"/>
	<path fill="#1187B0" transform="matrix(1 2.61013e-13 -2.61013e-13 1 0 0)" d="M850.344 478.714C851.386 481.49 850.075 496.751 842.265 498.41C833.918 500.593 825.397 502.125 816.767 502.294C812.892 497.903 809.29 493.249 805.613 488.692C818.185 487.214 838.083 482.754 850.344 478.714Z"/>
	<defs>
		<linearGradient id="gradient_2" gradientUnits="userSpaceOnUse" x1="841.42688" y1="519.64203" x2="784.69458" y2="509.82169">
			<stop offset="0" stop-color="#283824"/>
			<stop offset="1" stop-color="#095848"/>
		</linearGradient>
	</defs>
	<path fill="url(#gradient_2)" transform="matrix(1 2.61013e-13 -2.61013e-13 1 0 0)" d="M797.361 498.41C797.939 494.431 802.297 490.535 805.613 488.692C809.29 493.249 812.892 497.903 816.767 502.294C825.397 502.125 833.918 500.593 842.265 498.41C845.982 499.459 845.153 500.384 842.265 502.294C831.709 503.593 817.296 503.873 812.858 514.346C810.086 522.052 806.151 529.221 805.613 537.533C803.844 540.733 805.473 548.603 799.42 552.265C807.491 535.322 800.541 521.41 781.255 524.791C782.686 520.85 784.302 517.652 786.894 514.346C790.003 508.693 793.348 503.471 797.361 498.41Z"/>
	<path fill="#1187B0" transform="matrix(1 2.61013e-13 -2.61013e-13 1 0 0)" d="M797.361 498.41C799.629 502.621 802.328 505.725 805.613 509.157C803.209 513.13 800.815 516.601 797.361 519.744C793.548 518.252 790.355 516.543 786.894 514.346C790.003 508.693 793.348 503.471 797.361 498.41Z"/>
	<path fill="#0F5145" transform="matrix(1 2.61013e-13 -2.61013e-13 1 0 0)" d="M850.344 478.714C855.136 474.906 866.731 487.535 868.357 491.725C874.01 501.105 880.519 510.247 885.862 519.744C895.64 528.803 892.994 554.762 883.881 561.113C877.944 570.837 871.809 580.409 865.612 589.969C860.075 593.675 855.941 593.633 849.646 592.381L848.678 592.187L810.183 587.511C804.901 584.989 799.575 579.606 797.361 574.182L805.613 568.848C803.494 565.321 799.625 553.957 797.361 552.265L799.42 552.265C805.473 548.603 803.844 540.733 805.613 537.533C806.151 529.221 810.086 522.052 812.858 514.346C817.296 503.873 831.709 503.593 842.265 502.294C845.153 500.384 845.982 499.459 842.265 498.41C850.075 496.751 851.386 481.49 850.344 478.714ZM860.468 539.494C863.257 548.592 870.175 552.823 879.502 552.265C886.187 540.185 894.992 536.523 879.502 523.921C868.997 523.325 860.235 527.829 860.468 539.494Z"/>
	<path fill="#1382CF" transform="matrix(1 2.61013e-13 -2.61013e-13 1 0 0)" d="M858.665 578.479C860.637 576.691 881.82 561.328 883.881 561.113C877.944 570.837 871.809 580.409 865.612 589.969C863.148 586.273 861.145 582.216 858.665 578.479Z"/>
	<path fill="#1187B0" transform="matrix(1 2.61013e-13 -2.61013e-13 1 0 0)" d="M868.357 491.725C874.01 501.105 880.519 510.247 885.862 519.744C884.855 520.067 868.519 508.156 865.612 506.151C862.446 504.194 859.089 502.454 855.847 500.62C859.657 497.399 864.126 494.372 868.357 491.725Z"/>
	<path fill="#0D59A3" transform="matrix(1 2.61013e-13 -2.61013e-13 1 0 0)" d="M816.767 574.182C827.474 576.042 837.934 577.126 848.678 578.479C848.438 583.055 848.271 587.614 848.678 592.187L810.183 587.511C811.352 581.995 813.036 578.432 816.767 574.182Z"/>
	<defs>
		<linearGradient id="gradient_3" gradientUnits="userSpaceOnUse" x1="845.90448" y1="540.77673" x2="843.9632" y2="502.47653">
			<stop offset="0" stop-color="#329ECC"/>
			<stop offset="1" stop-color="#47B4D0"/>
		</linearGradient>
	</defs>
	<path fill="url(#gradient_3)" transform="matrix(1 2.61013e-13 -2.61013e-13 1 0 0)" d="M842.265 502.294C850.638 501.722 855.345 503.611 862.146 508.207C866.627 512.038 876.035 519.862 879.502 523.921C868.997 523.325 860.235 527.829 860.468 539.494C854.008 541.005 847.111 539.939 840.715 542.274C836.657 536.662 818.425 516.506 812.858 514.346C817.296 503.873 831.709 503.593 842.265 502.294Z"/>
	<defs>
		<linearGradient id="gradient_4" gradientUnits="userSpaceOnUse" x1="865.97076" y1="528.95258" x2="810.34015" y2="552.64655">
			<stop offset="0" stop-color="#3BAECC"/>
			<stop offset="1" stop-color="#67CCE0"/>
		</linearGradient>
	</defs>
	<path fill="url(#gradient_4)" transform="matrix(1 2.61013e-13 -2.61013e-13 1 0 0)" d="M812.858 514.346C818.425 516.506 836.657 536.662 840.715 542.274C847.111 539.939 854.008 541.005 860.468 539.494C863.257 548.592 870.175 552.823 879.502 552.265C855.086 581.34 808.81 579.366 805.613 537.533C806.151 529.221 810.086 522.052 812.858 514.346Z"/>
	<path fill="#030404" transform="matrix(1 2.61013e-13 -2.61013e-13 1 0 0)" d="M495.979 256.604C425.718 240.339 411.872 152.146 471.679 115.697C508.294 93.3817 556.934 105.11 578.9 142.045C606.19 187.933 577.979 245.239 526.702 256.604C523.842 267.573 522.11 268.516 511.63 270.802C517.56 289.272 530.822 294.833 520.897 319.591C519.517 324.447 515.934 321.268 512.683 319.591C522.966 294.849 504.907 287.393 503.874 270.802L498.487 267.314C496.451 263.906 496.291 260.453 495.979 256.604ZM508.34 116.208C427.889 124.371 426.411 232.237 499.678 244.846C505.05 239.685 508.569 238.64 515.651 239.707C518.446 241.215 520.876 242.922 523.396 244.846C598.417 236.5 593.868 110.594 508.34 116.208Z"/>
</svg>
